<svg xmlns="http://www.w3.org/2000/svg" viewBox="0 0 64 64">
  <!-- どんぶり（器） -->
  <path d="M4 32 C6 54, 58 54, 60 32 Z" fill="#D94F2E"/>
  <ellipse cx="32" cy="32" rx="28" ry="12" fill="#E85D3A"/>
  <!-- スープ面 -->
  <ellipse cx="32" cy="32" rx="24" ry="9" fill="#F5DEB3"/>
  <!-- 太いうどん麺 -->
  <g fill="none" stroke="#FFFFFF" stroke-width="5" stroke-linecap="round">
    <path d="M16 30 C18 22, 28 22, 26 30"/>
    <path d="M26 31 C28 21, 38 21, 36 31"/>
    <path d="M36 30 C38 22, 48 22, 46 30"/>
  </g>
  <!-- 湯気 -->
  <g fill="none" stroke="white" stroke-width="2.5" stroke-linecap="round" opacity="0.6">
    <path d="M22 20 C20 14, 24 12, 22 6"/>
    <path d="M32 18 C30 12, 34 10, 32 4"/>
    <path d="M42 20 C40 14, 44 12, 42 6"/>
  </g>
</svg>
