<svg xmlns="http://www.w3.org/2000/svg" viewBox="0 0 64 64">
  <!-- どんぶり（器） -->
  <ellipse cx="32" cy="38" rx="26" ry="10" fill="#E85D3A"/>
  <path d="M6 38 C8 56, 56 56, 58 38 Z" fill="#D94F2E"/>
  <ellipse cx="32" cy="38" rx="26" ry="10" fill="#E85D3A"/>
  <ellipse cx="32" cy="38" rx="22" ry="7.5" fill="#F5DEB3"/>
  <!-- スープ -->
  <ellipse cx="32" cy="38" rx="21" ry="6.5" fill="#C48A3F" opacity="0.5"/>
  <!-- うどん麺 -->
  <g fill="none" stroke="#F5F0DC" stroke-width="2.8" stroke-linecap="round">
    <path d="M18 36 C20 28, 28 30, 26 36"/>
    <path d="M24 37 C26 27, 34 29, 32 37"/>
    <path d="M30 36 C32 26, 40 28, 38 36"/>
    <path d="M36 37 C38 28, 46 30, 44 37"/>
  </g>
  <!-- ねぎ（薬味） -->
  <circle cx="22" cy="35" r="2" fill="#5B8C3E" opacity="0.85"/>
  <circle cx="38" cy="34" r="1.8" fill="#5B8C3E" opacity="0.85"/>
  <circle cx="30" cy="33" r="1.5" fill="#6BA34A" opacity="0.75"/>
  <!-- 湯気 -->
  <g fill="none" stroke="white" stroke-width="1.5" stroke-linecap="round" opacity="0.5">
    <path d="M22 26 C20 22, 24 20, 22 16"/>
    <path d="M32 24 C30 20, 34 18, 32 14"/>
    <path d="M42 26 C40 22, 44 20, 42 16"/>
  </g>
</svg>
